<svg xmlns="http://www.w3.org/2000/svg" width="430" height="430" style="width:100%;height:100%;transform:translate3d(0,0,0);content-visibility:visible" viewBox="0 0 430 430"><defs><clipPath id="e"><path d="M0 0h430v430H0z"/></clipPath><clipPath id="i"><path d="M0 0h430v430H0z"/></clipPath><clipPath id="f"><path d="M0 0h430v430H0z"/></clipPath><clipPath id="c"><path d="M0 0h430v430H0z"/></clipPath><filter id="j" width="300%" height="300%" x="-100%" y="-100%"><feGaussianBlur result="filter_result_0"/></filter><filter id="h" width="300%" height="300%" x="-100%" y="-100%"><feGaussianBlur result="filter_result_0" stdDeviation="52.5 52.5"/></filter><mask id="k" mask-type="alpha"><use xmlns:ns1="http://www.w3.org/1999/xlink" ns1:href="#a"/></mask><mask id="g" mask-type="alpha"><use xmlns:ns2="http://www.w3.org/1999/xlink" ns2:href="#b"/></mask><g id="a" fill-opacity="0" stroke-linecap="round" stroke-linejoin="round" style="display:none"><path class="secondary"/><path class="primary"/></g><g id="b" clip-path="url(#c)" style="display:block"><path fill-opacity="0" stroke="#121331" stroke-linecap="round" stroke-linejoin="round" stroke-width="12" d="M-28.239 110.855c0 53.376-43.27 96.645-96.646 96.645s-96.645-43.269-96.645-96.645 89.616-211.323 96.645-219.23c7.468 7.468 96.646 165.854 96.646 219.23" class="primary" style="display:none" transform="translate(340 165)"/><path fill-opacity="0" stroke="#08A88A" stroke-linecap="round" stroke-linejoin="round" stroke-width="12" d="M-54.241 111.589c0 38.123-30.905 69.027-69.028 69.027" class="secondary" style="display:none" transform="translate(340 165)"/><path fill-opacity="0" stroke="#121331" stroke-linecap="round" stroke-linejoin="round" stroke-width="12" d="M-28.239 110.855c0 53.376-43.27 96.645-96.646 96.645s-96.645-43.269-96.645-96.645 89.616-211.323 96.645-219.23c7.468 7.468 96.646 165.854 96.646 219.23" class="primary" style="display:block" transform="translate(340 165)"/><path fill-opacity="0" stroke="#08A88A" stroke-linecap="round" stroke-linejoin="round" stroke-width="12" d="M-54.241 111.589c0 38.123-30.905 69.027-69.028 69.027" class="secondary" style="display:block" transform="translate(340 165)"/><g style="display:block"><path fill="#121331" d="M400.5 255.5" class="primary"/><path fill-opacity="0" stroke="#121331" stroke-width="0" d="M400.5 255.5z" class="primary"/></g><g style="display:block"><path fill="#121331" d="M29.5 255.5" class="primary"/><path fill-opacity="0" stroke="#121331" stroke-width="0" d="M29.5 255.5z" class="primary"/></g><g style="display:block"><path fill="#121331" d="M215 298.375" class="primary"/><path fill-opacity="0" stroke="#121331" stroke-width="0" d="M215 298.375z" class="primary"/></g></g></defs><g clip-path="url(#e)"><g clip-path="url(#f)" mask="url(#g)" style="display:block"><g filter="url(#h)" transform="rotate(-94.201 224.462 -31.119)scale(2.4)"><g class="design"><path fill="#4AE0EB" d="M0-250c137.975 0 250 112.025 250 250S137.975 250 0 250-250 137.975-250 0-137.975-250 0-250" class="primary"/></g><g class="design"><path fill="#CA5EED" d="M113.242-295.384c97.478 0 176.5 79.022 176.5 176.5s-79.022 176.5-176.5 176.5c-43.948 0-74.396-34.057-105.29-60.631-37.631-32.369-71.21-62.338-71.21-115.869 0-97.478 79.022-176.5 176.5-176.5" class="secondary"/></g></g></g><g clip-path="url(#i)" filter="url(#j)" mask="url(#k)" style="display:none"><g class="design"><path class="primary"/></g><g class="design"><path class="secondary"/></g></g></g></svg>